# xmcd
#
# Track frame offsets:
#	150
#	15390
#	31701
#	45845
#	60050
#	79110
#	90775
#	106014
#	122323
#	136468
#	150672
#	169733
#
# Disc length: 2418 seconds
#
# Revision: 1
# Processed by: cddbd v1.5.2PL0 Copyright (c) Steve Scherf et al.
# Submitted via: audiograbber 1.83.01
#
DISCID=6c09700c
DTITLE=Various Artist - CB20056 Hot Hits Vol. 56
DYEAR=1900
DGENRE=Country
TTITLE0=Brooks and Dunn - Husbands And Wives (Vocals)
TTITLE1=Deana Carter - Absence Of The Heart (Vocals)
TTITLE2=Michael Peterson - By The Book (Vocals)
TTITLE3=Sammy Kershaw - One Day Left To Live (Vocals)
TTITLE4=Patty Loveless - Like Water Into Wine (Vocals)
TTITLE5=Diamond Rio - Unbelievable (Vocals)
TTITLE6=Brook and Dunn - Husbands And Wives
TTITLE7=Deana Carter - Absence Of The Heart
TTITLE8=Michael Peterson - By The Book
TTITLE9=Sammy Kershaw - One Day Left To Live
TTITLE10=Patty Loveless - Like Water Into Wine
TTITLE11=Diamond Rio - Unbelievable
EXTD=
EXTT0=
EXTT1=
EXTT2=
EXTT3=
EXTT4=
EXTT5=
EXTT6=
EXTT7=
EXTT8=
EXTT9=
EXTT10=
EXTT11=
PLAYORDER=
